<svg width="36" height="36" viewBox="0 0 36 36" fill="none" xmlns="http://www.w3.org/2000/svg">
<path d="M4.59863 10.8169L18.0002 18.1519L31.4018 10.8169" stroke="black" stroke-width="2" stroke-linecap="round" stroke-linejoin="round"/>
<path d="M18.54 3.51564L30.915 10.2909C31.0917 10.3876 31.2392 10.53 31.3421 10.7031C31.445 10.8763 31.4995 11.0739 31.5 11.2753V24.7247C31.4995 24.9261 31.445 25.1237 31.3421 25.2969C31.2392 25.47 31.0917 25.6124 30.915 25.7091L18.54 32.4844C18.3744 32.575 18.1887 32.6225 18 32.6225C17.8113 32.6225 17.6256 32.575 17.46 32.4844L5.085 25.7091C4.9083 25.6124 4.76079 25.47 4.65789 25.2969C4.55498 25.1237 4.50046 24.9261 4.5 24.7247V11.2753C4.50046 11.0739 4.55498 10.8763 4.65789 10.7031C4.76079 10.53 4.9083 10.3876 5.085 10.2909L17.46 3.51564C17.6256 3.42504 17.8113 3.37756 18 3.37756C18.1887 3.37756 18.3744 3.42504 18.54 3.51564Z" stroke="black" stroke-width="2" stroke-linecap="round" stroke-linejoin="round"/>
<path d="M18 18.1533V32.625" stroke="black" stroke-width="2" stroke-linecap="round" stroke-linejoin="round"/>
</svg>
