<svg width="20" height="20" viewBox="0 0 20 20" fill="none" xmlns="http://www.w3.org/2000/svg">
<path d="M10 10.9375C10.5178 10.9375 10.9375 10.5178 10.9375 10C10.9375 9.48223 10.5178 9.0625 10 9.0625C9.48223 9.0625 9.0625 9.48223 9.0625 10C9.0625 10.5178 9.48223 10.9375 10 10.9375Z" fill="black"/>
<path d="M10 5.625C10.5178 5.625 10.9375 5.20527 10.9375 4.6875C10.9375 4.16973 10.5178 3.75 10 3.75C9.48223 3.75 9.0625 4.16973 9.0625 4.6875C9.0625 5.20527 9.48223 5.625 10 5.625Z" fill="black"/>
<path d="M10 16.25C10.5178 16.25 10.9375 15.8303 10.9375 15.3125C10.9375 14.7947 10.5178 14.375 10 14.375C9.48223 14.375 9.0625 14.7947 9.0625 15.3125C9.0625 15.8303 9.48223 16.25 10 16.25Z" fill="black"/>
</svg>
