<svg width="20" height="20" viewBox="0 0 20 20" fill="none" xmlns="http://www.w3.org/2000/svg">
<path d="M10 15C10 14.5027 10.1975 14.0258 10.5492 13.6742C10.9008 13.3226 11.3777 13.125 11.875 13.125H15.4852C15.9098 13.1251 16.322 12.981 16.6541 12.7163C16.9862 12.4516 17.2186 12.082 17.3133 11.668C17.4423 11.0995 17.505 10.5181 17.5 9.93517C17.4648 5.80861 14.05 2.45861 9.92188 2.50001C7.94632 2.52059 6.05868 3.31985 4.66901 4.72414C3.27934 6.12844 2.49989 8.02435 2.5 10C2.5 13.2664 4.58828 15.7375 7.5 16.7664C7.7827 16.8664 8.08525 16.8971 8.38226 16.8559C8.67927 16.8148 8.96209 16.703 9.20698 16.53C9.45186 16.3569 9.65168 16.1277 9.78967 15.8615C9.92766 15.5953 9.99978 15.2999 10 15Z" stroke="black" stroke-width="1.4" stroke-linecap="round" stroke-linejoin="round"/>
<path d="M10 6.875C10.5178 6.875 10.9375 6.45527 10.9375 5.9375C10.9375 5.41973 10.5178 5 10 5C9.48223 5 9.0625 5.41973 9.0625 5.9375C9.0625 6.45527 9.48223 6.875 10 6.875Z" fill="black"/>
<path d="M6.5625 8.75C7.08027 8.75 7.5 8.33027 7.5 7.8125C7.5 7.29473 7.08027 6.875 6.5625 6.875C6.04473 6.875 5.625 7.29473 5.625 7.8125C5.625 8.33027 6.04473 8.75 6.5625 8.75Z" fill="black"/>
<path d="M6.5625 13.125C7.08027 13.125 7.5 12.7053 7.5 12.1875C7.5 11.6697 7.08027 11.25 6.5625 11.25C6.04473 11.25 5.625 11.6697 5.625 12.1875C5.625 12.7053 6.04473 13.125 6.5625 13.125Z" fill="black"/>
<path d="M13.4375 8.75C13.9553 8.75 14.375 8.33027 14.375 7.8125C14.375 7.29473 13.9553 6.875 13.4375 6.875C12.9197 6.875 12.5 7.29473 12.5 7.8125C12.5 8.33027 12.9197 8.75 13.4375 8.75Z" fill="black"/>
</svg>
